<?xml version="1.0" standalone="no"?><!DOCTYPE svg PUBLIC "-//W3C//DTD SVG 1.1//EN" "http://www.w3.org/Graphics/SVG/1.1/DTD/svg11.dtd"><svg t="1581080671379" class="icon" viewBox="0 0 1024 1024" version="1.1" xmlns="http://www.w3.org/2000/svg" p-id="5628" width="40" height="40" xmlns:xlink="http://www.w3.org/1999/xlink"><defs><style type="text/css"></style></defs><path d="M746.7 271.1H280.3c-31.1 0-56.3 25.2-56.3 56.3v576c0 31.1 25.2 56.3 56.3 56.3h466.4c31.1 0 56.3-25.2 56.3-56.3v-576c-0.1-31.2-25.3-56.3-56.3-56.3z m0 632.2H280.3v-576h466.4v576zM812.4 169.6H644c-13-60.2-66.6-105.5-130.6-105.5s-117.6 45.3-130.6 105.5H214.5c-15.5 0-28.1 12.6-28.1 28.1 0 15.6 12.6 28.1 28.1 28.1h597.8c15.6 0 28.2-12.6 28.2-28.1 0-15.5-12.6-28.1-28.1-28.1z m-298.9-49.2c32.7 0 60.7 20.4 72 49.2h-144c11.3-28.7 39.3-49.2 72-49.2z" fill="#2c2c2c" p-id="5629"></path><path d="M378 831.3c10.4 0 18.7-8.4 18.7-18.8V422.3c0-10.4-8.4-18.8-18.7-18.8-10.4 0-18.8 8.4-18.8 18.8v390.2c0 10.4 8.5 18.8 18.8 18.8zM508.3 831.3c10.4 0 18.7-8.4 18.7-18.8V422.3c0-10.4-8.4-18.8-18.7-18.8-10.4 0-18.8 8.4-18.8 18.8v390.2c0 10.4 8.4 18.8 18.8 18.8zM638.4 831.3c10.4 0 18.8-8.4 18.8-18.8V571.1c0-10.4-8.4-18.8-18.8-18.8s-18.7 8.4-18.7 18.8v241.4c0 10.4 8.4 18.8 18.7 18.8zM638.4 500c10.4 0 18.8-8.4 18.8-18.8v-59c0-10.4-8.4-18.8-18.8-18.8s-18.7 8.4-18.7 18.8v59c0 10.4 8.4 18.8 18.7 18.8z" fill="#2c2c2c" p-id="5630"></path></svg>