<?xml version="1.0" standalone="no"?><!DOCTYPE svg PUBLIC "-//W3C//DTD SVG 1.1//EN" "http://www.w3.org/Graphics/SVG/1.1/DTD/svg11.dtd"><svg t="1581224701644" class="icon" viewBox="0 0 1024 1024" version="1.1" xmlns="http://www.w3.org/2000/svg" p-id="3636" xmlns:xlink="http://www.w3.org/1999/xlink" width="50" height="50"><defs><style type="text/css"></style></defs><path d="M512 232a77.51 77.51 0 1 0-77.51-77.51A77.6 77.6 0 0 0 512 232z" fill="#F9DB91" p-id="3637"></path><path d="M512 398a112.4 112.4 0 1 0 112.4 112.4A112.53 112.53 0 0 0 512 398z" fill="#AEF0FF" p-id="3638"></path><path d="M869.49 432.89A77.51 77.51 0 1 0 947 510.4a77.6 77.6 0 0 0-77.51-77.51z" fill="#EF6A6A" p-id="3639"></path><path d="M512 792a77.51 77.51 0 1 0 77.51 77.51A77.6 77.6 0 0 0 512 792z" fill="#F9DB91" p-id="3640"></path><path d="M154.51 432.89A77.51 77.51 0 1 0 232 510.4a77.6 77.6 0 0 0-77.49-77.51z" fill="#EF6A6A" p-id="3641"></path><path d="M960 510.4a90.53 90.53 0 0 0-76.41-89.4c-33.4-139.32-143.1-249-282.46-282.26a90.52 90.52 0 0 0-178.27 0C283.5 172 173.79 281.66 140.39 421a90.52 90.52 0 0 0 0 178.82c33.36 139.15 142.84 248.67 282 282.12a90.51 90.51 0 0 0 179.3 0c139.12-33.45 248.62-143 282-282.14A90.53 90.53 0 0 0 960 510.4zM763.83 258.57a354.61 354.61 0 0 1 92.93 162.22 90.56 90.56 0 0 0-76.85 76.61H636.73A125.44 125.44 0 0 0 525 385.67V244.08a90.55 90.55 0 0 0 76.82-78.41 355.11 355.11 0 0 1 162 92.9zM512 609.8a99.4 99.4 0 1 1 99.4-99.4 99.51 99.51 0 0 1-99.4 99.4zM512 90a64.51 64.51 0 1 1-64.51 64.51A64.58 64.58 0 0 1 512 90zM260.17 258.57a355.13 355.13 0 0 1 162-92.9A90.55 90.55 0 0 0 499 244.08v141.59A125.44 125.44 0 0 0 387.27 497.4H244.08a90.56 90.56 0 0 0-76.86-76.62 354.94 354.94 0 0 1 92.94-162.22zM90 510.4a64.51 64.51 0 1 1 64.51 64.51A64.58 64.58 0 0 1 90 510.4z m170.17 251.84A354.84 354.84 0 0 1 167.23 600a90.56 90.56 0 0 0 76.86-76.62h143.18A125.44 125.44 0 0 0 499 635.13v144.79a90.57 90.57 0 0 0-76.39 75.33 355.08 355.08 0 0 1-162.45-93zM512 934a64.51 64.51 0 1 1 64.51-64.51A64.58 64.58 0 0 1 512 934z m251.83-171.76a355.23 355.23 0 0 1-162.44 93A90.57 90.57 0 0 0 525 779.92V635.13A125.44 125.44 0 0 0 636.73 523.4h143.19a90.56 90.56 0 0 0 76.85 76.6 354.87 354.87 0 0 1-92.94 162.22z m105.66-187.33A64.51 64.51 0 1 1 934 510.4a64.58 64.58 0 0 1-64.51 64.51z" fill="#4c4848" p-id="3642" data-spm-anchor-id="a313x.7781069.0.i22" class="selected"></path></svg>