<?xml version="1.0" standalone="no"?><!DOCTYPE svg PUBLIC "-//W3C//DTD SVG 1.1//EN" "http://www.w3.org/Graphics/SVG/1.1/DTD/svg11.dtd"><svg t="1581061139671" class="icon" viewBox="0 0 1024 1024" version="1.1" xmlns="http://www.w3.org/2000/svg" p-id="5014" xmlns:xlink="http://www.w3.org/1999/xlink" width="30" height="30"><defs><style type="text/css"></style></defs><path d="M511.9 496.1C630.5 496.1 727 399.6 727 281S630.5 65.9 511.9 65.9 296.8 162.4 296.8 281s96.5 215.1 215.1 215.1z m0-374c87.6 0 158.9 71.3 158.9 159 0 87.6-71.3 158.9-158.9 158.9S353 368.7 353 281c0-87.6 71.3-158.9 158.9-158.9zM882.5 718.8c-53.8-93-139.8-161.9-242.1-194.1-13.2-4.2-27.6 2-33.7 14.5-21.5 44.3-54.1 81.5-94.7 108.5-40.7-27-73.3-64.2-94.7-108.5-6.1-12.5-20.4-18.7-33.7-14.5-102.3 32.2-188.3 101.1-242.1 194.1-5.1 8.7-5.1 19.4 0 28.1 76.3 132 218.3 213.9 370.6 213.9 152.2 0 294.2-82 370.6-213.9 4.8-8.7 4.8-19.4-0.2-28.1zM645.4 585.9c15.5 5.9 30.5 13 44.9 20.8-22.8 39.5-55 86.4-95.8 122.6-4.6-4-9.4-8.3-14.3-12.7-10.1-9.1-20.3-18.3-31-26.6 39.3-27.3 72.1-62.6 96.2-104.1zM474.6 690.1c-10.7 8.3-20.9 17.5-31 26.6-4.9 4.4-9.7 8.7-14.3 12.7-40.8-36.3-73.1-83.2-95.8-122.6 14.4-7.9 29.4-14.9 44.9-20.8 24.2 41.4 56.9 76.7 96.2 104.1z m56 214V780.3c0-10.4-8.4-18.7-18.7-18.7-10.3 0-18.7 8.4-18.7 18.7v123.8c-119.6-6.1-230-70.1-294.7-171.2 27.1-42.4 62.2-78.6 103.1-106.6 26.6 46 65.5 101.5 115.9 142.1 6.8 5.4 16.4 5.5 23.2 0.2 9.3-7.2 18.4-15.4 28-24.1 14.2-12.8 28.7-25.9 43.2-35 14.5 9.1 29 22.3 43.2 35 9.6 8.7 18.7 16.9 28 24.1 3.4 2.6 7.4 3.9 11.5 3.9 4.2 0 8.3-1.4 11.7-4.1 50.4-40.5 89.3-96.1 115.9-142.1 40.9 28 76 64.1 103.1 106.6C760.6 834 650.2 898 530.6 904.1z" fill="#bebebe" p-id="5015"></path></svg>