<?xml version="1.0" standalone="no"?><!DOCTYPE svg PUBLIC "-//W3C//DTD SVG 1.1//EN" "http://www.w3.org/Graphics/SVG/1.1/DTD/svg11.dtd"><svg t="1581128693077" class="icon" viewBox="0 0 1024 1024" version="1.1" xmlns="http://www.w3.org/2000/svg" p-id="1670" xmlns:xlink="http://www.w3.org/1999/xlink" width="40" height="40"><defs><style type="text/css"></style></defs><path d="M773.9 358.5l120.3-196.6c5.7-8.8 9.1-19.3 9.1-30.5 0-30.9-25.1-56-56-56H522.1c-30.9 0-56 25.1-56 56v37.2H287.3c-31 0-56 25.1-56 56v450.1c0 31 25.1 56 56 56h325.1c30.9 0 56-25.1 56-56v-37.2h178.8c20.4 0 39.1-11.1 49-28.9 9.9-17.8 9.3-39.6-1.5-56.8L773.9 358.5z m-486.6-134h197.4v27.4c0 10.3 8.4 18.7 18.7 18.7 10.3 0 18.7-8.4 18.7-18.7v-27.4h0.1v-93.2h325.1L708 358.8l139.2 222.6H612.4v0.1H522V336.7c0-10.3-8.4-18.7-18.7-18.7-10.3 0-18.7 8.3-18.7 18.7v263.5c0 0.3 0.1 0.6 0.1 0.9 0.1 0.9 0.1 1.8 0.3 2.6 0.1 0.6 0.3 1.1 0.5 1.7 0.2 0.6 0.3 1.2 0.5 1.7 0.2 0.6 0.5 1.1 0.8 1.6 0.3 0.5 0.5 1.1 0.9 1.6l1.2 1.5c0.4 0.4 0.7 0.9 1.1 1.3 0.7 0.7 1.5 1.3 2.3 1.9 0.2 0.1 0.3 0.3 0.5 0.4l0.1 0.1h0.1l86 58.9H287.3V224.5z m325.1 427.6l-48.6-33.3h48.6v33.3zM156.8 173.8c-15.5 0-28 12.5-28 28v730.9c0 15.5 12.5 28 28 28s28-12.6 28-28V201.8c0-15.5-12.5-28-28-28zM156.8 66.5c-20 0-36.3 16.2-36.3 36.3 0 20 16.3 36.3 36.3 36.3 20 0 36.3-16.3 36.3-36.3 0-20.1-16.3-36.3-36.3-36.3z" fill="#4F4F4F" p-id="1671"></path></svg>